<?xml version="1.0" encoding="utf-8"?>
<!-- Generator: Adobe Illustrator 28.0.0, SVG Export Plug-In . SVG Version: 6.00 Build 0)  -->
<svg version="1.1" id="Layer_1" xmlns="http://www.w3.org/2000/svg" xmlns:xlink="http://www.w3.org/1999/xlink" x="0px" y="0px"
	 viewBox="0 0 227.15 208.38" style="enable-background:new 0 0 227.15 208.38;" xml:space="preserve">
<style type="text/css">
	.st0{display:none;}
	.st1{display:inline;}
	.st2{font-family:'Poppins-SemiBold';}
	.st3{font-size:155.0914px;}
	.st4{fill-rule:evenodd;clip-rule:evenodd;fill:#380067;}
	.st5{fill-rule:evenodd;clip-rule:evenodd;fill:#4F7EF3;}
</style>
<g id="icon-black_00000129166214560931710720000014079342250062017976_">
	<path id="otto8-icon-black_00000052808708928244291080000007683698333036600744_" class="st5" d="M113.54,0.89
		c-7.15,0-13.03,5.89-13.03,13.03l0,0c0.01,4.75,2.63,9.15,6.81,11.42v30.48H62.84c-16.55,0-31.04,8.87-38.99,22.06
		c-0.58-0.1-1.16-0.16-1.74-0.22c-12.1,0-22.06,9.96-22.06,22.06l0,0c0,12.11,9.96,22.06,22.06,22.06c0.14-0.01,0.28-0.02,0.42-0.03
		c7.59,14.45,22.83,24.34,40.32,24.34h101.4c17.49,0,32.73-9.89,40.32-24.35c0.14,0.01,0.28,0.03,0.42,0.04
		c12.1,0,22.06-9.96,22.06-22.06l0,0c0-12.11-9.96-22.06-22.06-22.06c-0.58,0.05-1.17,0.12-1.74,0.22
		c-7.95-13.2-22.44-22.07-38.99-22.07h-44.48V25.34c4.18-2.28,6.8-6.66,6.81-11.42l0,0C126.57,6.77,120.69,0.89,113.54,0.89
		L113.54,0.89z M62.84,70.1h19.1c-0.02,0.27-0.04,0.54-0.04,0.82c0,6.45,5.19,11.64,11.65,11.64h39.99
		c6.45,0,11.65-5.19,11.65-11.64c0-0.28-0.02-0.55-0.04-0.82h19.1c17.42,0,31.16,13.66,31.16,30.85c0,17.18-13.75,30.85-31.16,30.85
		H62.84c-17.42,0-31.16-13.67-31.16-30.85C31.67,83.76,45.42,70.1,62.84,70.1L62.84,70.1z M60.73,85.65L60.73,85.65
		c-8.39,0-15.3,6.9-15.3,15.3l0,0c0,8.39,6.91,15.3,15.3,15.3l0,0c8.39,0,15.3-6.91,15.3-15.3l0,0
		C76.03,92.55,69.12,85.65,60.73,85.65z M166.35,85.65c-8.39,0-15.3,6.9-15.3,15.3l0,0c0,8.39,6.91,15.3,15.3,15.3l0,0
		c8.39,0,15.3-6.91,15.3-15.3l0,0C181.65,92.55,174.74,85.65,166.35,85.65L166.35,85.65z M92.91,94.82
		c0,11.39,9.23,20.63,20.62,20.63c11.39,0,20.62-9.23,20.62-20.63H92.91z M59.73,157.01c-0.52,2.99-0.82,6.06-0.82,9.2v15.07
		c-11.04,4.04-18.93,14.6-18.93,27.03H97.6c0-12.57-8.07-23.23-19.3-27.16v-14.94c0-3.15,0.41-6.19,1.17-9.08H62.84
		C61.79,157.13,60.76,157.08,59.73,157.01z M167.34,157.01c-1.03,0.08-2.06,0.12-3.1,0.12H147.6c0.76,2.89,1.17,5.93,1.17,9.08
		v14.94c-11.23,3.93-19.3,14.59-19.3,27.16h57.61c0-12.43-7.89-22.99-18.93-27.02v-15.08C168.16,163.07,167.86,160,167.34,157.01z"
		/>
</g>
</svg>
