<svg id="ePIi086OHkh1" xmlns="http://www.w3.org/2000/svg" xmlns:xlink="http://www.w3.org/1999/xlink" viewBox="0 0 227.15 208.38" shape-rendering="geometricPrecision" text-rendering="geometricPrecision" project-id="a49af9dd50d944f6888f9149a694371e" export-id="0370ecf9f4dc4f7aae445115d5f6c405" cached="false"><g id="ePIi086OHkh2" transform="translate(0.79138 7.518117)"><path d="M201.95116,76.69185c.51363-.03242,1.03173-.04889,1.55379-.04889c13.05053,0,23.63008,10.28834,23.63008,22.97965s-10.57955,22.97965-23.63008,22.97965c-.19717,0-.39378-.00235-.5898-.00702-10.87276,29.23904-46.49013,24.74265-89.37772,24.74265-42.31722,0-78.18719,3.01371-89.26054-24.30667-.37793.01747-.75818.0263-1.14056.0263-13.05053,0-23.63008-10.28834-23.63008-22.97965s10.57955-22.97965,23.63008-22.97965c.82977,0,1.64956.04159,2.45727.12275c11.72603-23.37915,43.51451-22.0176,81.76348-21.81949v-30.56894h12.47678v30.55856c38.38121-.31866,70.72739-2.79555,82.1173,21.30075Zm-6.16774,24.15721c0-14.74375-7.18083-30.93327-25.48242-30.65708h-25.89117c-.07451,9.81455-2.05482,12.98098-31.34518,12.98095s-31.27067-3.16641-31.34518-12.98095h-25.2928c-19.45234.27619-25.25221,15.73525-25.25221,30.65708c0,14.9153,5.52368,30.93327,25.50486,30.93327h113.93972c17.70737-.27619,25.16438-16.2015,25.16438-30.93327Z" transform="translate(0 0.000001)" fill="#4f7ef3" stroke-width="0"/><path d="M12.041539,0C12.041539,6.570234,6.650358,11.896461,0,11.896461s-12.041539-5.326227-12.041539-11.896461s5.391181-11.896461,12.041539-11.896461s12.041539,5.326227,12.041539,11.896461Z" transform="matrix(1.096384 0 0 1.097561 113.59547 13.806557)" fill="#4f7ef3" stroke-width="0"/><path d="M92.26885,95.34084c0-.09688.00073-.1936.00218-.29016h42.35872c.00145.09656.00218.19328.00218.29016c0,11.05722-9.4833,20.02087-21.18154,20.02087s-21.18154-8.96365-21.18154-20.02087Z" fill="#4f7ef3" stroke-width="0"/><ellipse rx="14.652958" ry="14.217722" transform="matrix(1.059406 0 0 1.081632 60.78679 100.85383)" fill="#4f7ef3" stroke-width="0"/><ellipse rx="14.652958" ry="14.217722" transform="matrix(1.059406 0 0 1.081632 166.404149 100.839322)" fill="#4f7ef3" stroke-width="0"/></g><path id="ePIi086OHkh8" d="M58.93396,157.12873h16.42992l-.00661-.01102l4.34029-.03172c-.3853.54865-1.51433,5.13393-1.28568,4.22786v19.68332c11.51006,3.88977,19.89401,14.62857,20.36608,27.40197h-59.80094c.46646-12.62155,8.65781-23.2566,19.95694-27.26036v-24.01005Z" fill="#4f7ef3" stroke-width="0"/><path id="ePIi086OHkh9" d="M58.93396,157.12873h16.42992l-.00661-.01102l4.34029-.03172c-.3853.54865-1.51433,5.13393-1.28568,4.22786v19.68332c11.51006,3.88977,19.89401,14.62857,20.36608,27.40197h-59.80094c.46646-12.62155,8.65781-23.2566,19.95694-27.26036v-24.01005Z" transform="matrix(-1 0 0 1 227.157569 0.066059)" fill="#4f7ef3" stroke-width="0"/>
</svg>
