<svg width="48" height="48" viewBox="0 0 48 48" fill="none" xmlns="http://www.w3.org/2000/svg">
<path d="M0 0H48V48H0V0Z" fill="url(#paint0_linear_6146_105258)"/>
<path d="M14.3322 27.6803H8.37932C7.96165 27.6803 7.58849 27.4309 7.42866 27.0451C7.26883 26.6592 7.35639 26.219 7.65174 25.9237L11.7751 21.8004H8.81981C8.00796 21.8004 7.34983 21.1422 7.34983 20.3304H12.8397C13.2573 20.3304 13.6305 20.5797 13.7903 20.9655C13.9502 21.3514 13.8627 21.7915 13.5674 22.087L9.44401 26.2103H12.8622C13.6741 26.2103 14.3322 26.8684 14.3322 27.6803ZM40.6448 23.0866C40.6448 21.506 39.3589 20.2202 37.7784 20.2202C36.9329 20.2202 36.172 20.5883 35.6469 21.1724C35.1218 20.5883 34.3609 20.2202 33.5154 20.2202C31.9349 20.2202 30.649 21.506 30.649 23.0866V27.6803C31.4608 27.6803 32.119 27.0222 32.119 26.2103V23.0866C32.119 22.3166 32.7454 21.6901 33.5154 21.6901C34.2854 21.6901 34.9119 22.3166 34.9119 23.0866V26.2103C34.9119 27.0222 35.57 27.6803 36.3819 27.6803V23.0866C36.3819 22.3166 37.0083 21.6901 37.7784 21.6901C38.5484 21.6901 39.1748 22.3166 39.1748 23.0866V26.2103C39.1748 27.0222 39.833 27.6803 40.6448 27.6803V23.0866ZM29.914 24.0053C29.914 26.0958 28.2193 27.7905 26.1288 27.7905C24.0383 27.7905 22.3436 26.0958 22.3436 24.0053C22.3436 21.9148 24.0383 20.2202 26.1288 20.2202C28.2193 20.2202 29.914 21.9148 29.914 24.0053H29.914ZM28.444 24.0053C28.444 22.7267 27.4074 21.6901 26.1288 21.6901C24.8501 21.6901 23.8136 22.7267 23.8136 24.0053C23.8136 25.284 24.8501 26.3206 26.1288 26.3206C27.4074 26.3206 28.444 25.284 28.444 24.0053ZM21.7556 24.0053C21.7556 26.0958 20.0609 27.7905 17.9704 27.7905C15.8799 27.7905 14.1852 26.0958 14.1852 24.0053C14.1852 21.9148 15.8799 20.2202 17.9704 20.2202C20.0609 20.2202 21.7556 21.9148 21.7556 24.0053H21.7556ZM20.2856 24.0053C20.2856 22.7267 19.2491 21.6901 17.9704 21.6901C16.6918 21.6901 15.6552 22.7267 15.6552 24.0053C15.6552 25.284 16.6918 26.3206 17.9704 26.3206C19.2491 26.3206 20.2856 25.284 20.2856 24.0053Z" fill="white"/>
<defs>
<linearGradient id="paint0_linear_6146_105258" x1="7.6077" y1="52.3923" x2="40.3923" y2="-4.3923" gradientUnits="userSpaceOnUse">
<stop stop-color="#0845BF"/>
<stop offset="0.6" stop-color="#0B5CFF"/>
<stop offset="1" stop-color="#4F90EE"/>
</linearGradient>
</defs>
</svg>
